<?xml version="1.0" encoding="utf-8"?>
<!-- Generator: Adobe Illustrator 25.0.0, SVG Export Plug-In . SVG Version: 6.00 Build 0)  -->
<svg version="1.1" id="Livello_1" xmlns="http://www.w3.org/2000/svg" xmlns:xlink="http://www.w3.org/1999/xlink" x="0px" y="0px"
	 viewBox="0 0 350 100" style="enable-background:new 0 0 350 100;" xml:space="preserve">
<g id="Raggruppa_39" transform="translate(0.5 0.5)">
	<g id="Tracciato_101">
		<path d="M334.42,85.43c-0.28,0-0.5-0.22-0.5-0.5v-8.23c0-24.63-11.97-35.62-38.82-35.62c-10.82,0.18-21.71,1.25-32.37,3.19
			c-11.47,2.01-23.19,3.09-34.83,3.21c-27.3,0.41-43.6-10.34-49.76-32.92h-0.14c-5.54,21.97-22.89,33.36-50.23,32.92
			c-11.64-0.09-23.36-1.17-34.83-3.21c-11.95-1.92-22.11-3.19-32.83-3.19c-26.8,0-39.28,11.32-39.28,35.62v8.23
			c0,0.28-0.22,0.5-0.5,0.5s-0.5-0.22-0.5-0.5v-8.23c0-24.64,13.17-36.62,40.28-36.62c10.78,0,20.99,1.28,33,3.21
			c11.42,2.03,23.08,3.1,34.67,3.19c27.41,0.42,43.96-10.52,49.34-32.54c0.05-0.22,0.26-0.38,0.49-0.38h0.91
			c0.23,0,0.42,0.15,0.48,0.37c5.95,22.32,21.95,32.94,48.89,32.55c11.59-0.12,23.25-1.19,34.67-3.19
			c10.71-1.95,21.65-3.03,32.54-3.21c27.17,0,39.83,11.64,39.83,36.62v8.23C334.92,85.21,334.69,85.43,334.42,85.43z"/>
	</g>
</g>
</svg>
