<?xml version="1.0" encoding="utf-8"?>
<!-- Generator: Adobe Illustrator 25.0.0, SVG Export Plug-In . SVG Version: 6.00 Build 0)  -->
<svg version="1.1" id="Livello_1" xmlns="http://www.w3.org/2000/svg" xmlns:xlink="http://www.w3.org/1999/xlink" x="0px" y="0px"
	 viewBox="0 0 450 200" style="enable-background:new 0 0 450 200;" xml:space="preserve">
<g id="Raggruppa_1" transform="translate(0 0)">
	<path id="Tracciato_1" d="M8.1,102.2c0,0,6.78-0.08,18.64-0.24c11.86-0.11,28.81-0.26,49.14-0.45l69.47-0.38
		c25.42-0.05,52.53-0.11,79.64-0.17c27.11,0.06,54.23,0.11,79.65,0.16s49.14,0.27,69.48,0.38c20.34,0.18,37.28,0.34,49.14,0.45
		c11.86,0.15,18.64,0.24,18.64,0.24s-6.78,0.09-18.64,0.24c-11.86,0.11-28.81,0.27-49.14,0.45c-20.34,0.1-44.06,0.33-69.48,0.38
		s-52.53,0.11-79.65,0.16c-27.11-0.06-54.22-0.11-79.64-0.17l-69.47-0.38c-20.33-0.19-37.28-0.34-49.14-0.45
		C14.88,102.29,8.1,102.2,8.1,102.2"/>
	<rect id="Rettangolo_2" x="173.49" y="34.56" width="103.02" height="1.23"/>
	
		<rect id="Rettangolo_3" x="211.44" y="30.97" transform="matrix(0.7249 -0.6889 0.6889 0.7249 45.7003 177.5965)" width="67.49" height="1.23"/>
	<rect id="Rettangolo_4" x="173.49" y="58.9" width="103.02" height="1.23"/>
	<path id="Tracciato_2" d="M116.22,144.62c-0.6-2.64-1.85-5.08-3.64-7.11c-1.7-1.73-4.06-2.63-6.48-2.49
		c-1.81-0.09-3.6,0.34-5.18,1.24c-1.27,0.78-2.31,1.89-3.01,3.22c-0.73,1.41-1.19,2.94-1.38,4.52c-0.22,1.71-0.33,3.43-0.32,5.15
		v4.06c-0.04,2.39,0.15,4.78,0.56,7.13c0.27,1.65,0.86,3.24,1.75,4.66c0.74,1.14,1.82,2.03,3.08,2.54c1.44,0.54,2.96,0.81,4.5,0.77
		c1.18,0.06,2.36-0.21,3.4-0.77c0.83-0.5,1.5-1.23,1.94-2.1c0.48-0.99,0.77-2.05,0.86-3.15c0.13-1.32,0.19-2.64,0.19-3.96v-1.77
		h-4.8v-0.65h14.41v0.65h-3.03v10.68h-0.84c-0.04-0.34-0.24-0.64-0.53-0.81c-0.3-0.17-0.65-0.26-1-0.26c-0.73,0-1.45,0.15-2.12,0.44
		c-0.67,0.29-1.39,0.61-2.17,0.95c-0.87,0.38-1.77,0.7-2.68,0.95c-1.19,0.32-2.43,0.47-3.66,0.44c-2.26,0-4.49-0.45-6.57-1.33
		c-2.07-0.86-3.96-2.09-5.57-3.64c-1.61-1.55-2.92-3.4-3.85-5.43c-0.97-2.12-1.47-4.43-1.45-6.76c-0.04-2.49,0.52-4.95,1.61-7.18
		c1.02-2.07,2.42-3.94,4.13-5.5c1.65-1.5,3.55-2.69,5.62-3.52c1.93-0.8,3.99-1.22,6.08-1.24c0.91,0,1.82,0.09,2.71,0.28
		c0.87,0.19,1.68,0.38,2.42,0.58s1.42,0.4,2.01,0.58c0.48,0.17,0.98,0.26,1.49,0.28c0.33,0.03,0.65-0.04,0.94-0.21
		c0.23-0.21,0.41-0.47,0.51-0.77h0.79v9.51L116.22,144.62z"/>
	<path id="Tracciato_3" d="M138.41,167.65l13.9-33.85h1.26l14.69,33.85h4.01v0.65H156.6v-0.65h4.34l-5.41-12.5h-11.19l-5.17,12.5
		h4.15v0.65h-8.81v-0.65H138.41z M144.57,154.5h10.72l-5.5-12.73L144.57,154.5z"/>
	<path id="Tracciato_4" d="M185.65,135.76v-0.65h7.04c1.3,0,2.6-0.02,3.87-0.07s2.56-0.07,3.87-0.07c1.28,0.01,2.56,0.13,3.82,0.37
		c1.28,0.23,2.51,0.65,3.66,1.26c1.08,0.57,2.01,1.38,2.73,2.38c0.75,1.1,1.12,2.41,1.07,3.73c0.04,1.21-0.33,2.4-1.05,3.38
		c-0.69,0.91-1.56,1.68-2.54,2.26c-0.97,0.58-2.01,1.03-3.1,1.35c-0.89,0.27-1.8,0.47-2.73,0.61v0.19c1.27,0.1,2.53,0.3,3.78,0.6
		c1.27,0.3,2.48,0.79,3.59,1.47c1.08,0.67,2.01,1.57,2.7,2.63c0.75,1.23,1.13,2.66,1.07,4.1c0.06,1.6-0.42,3.18-1.38,4.48
		c-0.9,1.17-2.04,2.13-3.35,2.8c-1.32,0.69-2.75,1.17-4.22,1.42c-1.32,0.25-2.67,0.38-4.01,0.4c-1.3,0-2.6-0.02-3.89-0.05
		s-2.59-0.05-3.9-0.05h-7.04v-0.65h4.29v-31.89H185.65z M198.61,150.17c1.13,0.05,2.26-0.14,3.31-0.56
		c0.74-0.32,1.37-0.84,1.82-1.51c0.41-0.66,0.67-1.4,0.77-2.17c0.11-0.82,0.17-1.65,0.17-2.47c0.01-1.18-0.08-2.36-0.28-3.52
		c-0.14-0.86-0.46-1.69-0.93-2.42c-0.44-0.64-1.07-1.14-1.8-1.42c-0.93-0.34-1.92-0.5-2.92-0.47c-0.34,0-0.68,0.02-1.03,0.05
		s-0.68,0.06-1.02,0.09v14.41L198.61,150.17z M199.4,167.79c0.91,0.01,1.81-0.11,2.68-0.35c0.79-0.23,1.5-0.7,2.03-1.33
		c0.63-0.8,1.07-1.73,1.28-2.73c0.33-1.51,0.48-3.05,0.44-4.59c-0.01-0.71-0.06-1.42-0.14-2.12c-0.1-0.91-0.36-1.81-0.77-2.63
		c-0.45-0.9-1.1-1.67-1.91-2.26c-1.07-0.7-2.34-1.03-3.61-0.95h-2.7v16.83C197.6,167.75,198.5,167.79,199.4,167.79"/>
	<path id="Tracciato_5" d="M231.67,167.65l13.9-33.85h1.26l14.69,33.85h4.01v0.65h-15.67v-0.65h4.33l-5.41-12.5h-11.19l-5.17,12.5
		h4.15v0.65h-8.81v-0.65H231.67z M237.82,154.5h10.72l-5.5-12.73L237.82,154.5z"/>
	<path id="Tracciato_6" d="M289.86,135.1l15.53,22.2h0.09v-21.54h-4.29v-0.65h9.32v0.65h-4.29v32.55h-1.26l-20.98-29.89h-0.09v29.23
		h4.29v0.65h-9.32v-0.65h4.29v-31.89h-4.29v-0.65H289.86z"/>
	<path id="Tracciato_7" d="M327.53,167.65l13.9-33.85h1.26l14.69,33.85h4.01v0.65h-15.67v-0.65h4.33l-5.41-12.5h-11.19l-5.18,12.5
		h4.15v0.65h-8.81v-0.65H327.53z M333.68,154.5h10.72l-5.5-12.73L333.68,154.5z"/>
	<path id="Tracciato_8" d="M125.4,191.58h1.66l5.09-13.5h0.45l5.13,13.5h1.68v0.27h-5.81v-0.27h2.09l-1.98-5.24h-4.37l-1.98,5.24
		h2.09v0.27h-4.05L125.4,191.58z M131.53,180.59l-2.07,5.49h4.15L131.53,180.59z"/>
	<path id="Tracciato_9" d="M145.2,191.58h2.09v-12.9h-2.09v-0.26h3.58c0.15,0,0.3,0,0.45-0.01s0.3-0.02,0.46-0.03s0.3,0,0.45-0.01
		s0.3-0.01,0.45-0.01c0.66,0,1.31,0.04,1.96,0.12c0.58,0.09,1.13,0.34,1.58,0.71c0.4,0.3,0.73,0.69,0.93,1.15
		c0.17,0.38,0.26,0.79,0.27,1.21c-0.01,0.24-0.04,0.49-0.11,0.73c-0.08,0.33-0.24,0.64-0.45,0.9c-0.28,0.35-0.62,0.64-1.01,0.85
		c-0.54,0.29-1.14,0.47-1.75,0.52v0.04c0.2,0.02,0.47,0.07,0.82,0.14c0.36,0.08,0.72,0.19,1.06,0.35c0.36,0.17,0.69,0.38,0.99,0.65
		c0.31,0.28,0.53,0.65,0.64,1.05c0.08,0.28,0.14,0.57,0.16,0.86c0.03,0.32,0.06,0.65,0.07,0.99s0.04,0.67,0.06,0.98
		c0.01,0.27,0.05,0.54,0.1,0.8c0.07,0.31,0.19,0.61,0.36,0.89c0.17,0.27,0.47,0.42,0.79,0.4c0.17,0,0.35-0.04,0.51-0.1
		c0.18-0.06,0.34-0.17,0.47-0.3l0.17,0.21c-0.06,0.05-0.14,0.11-0.22,0.16c-0.1,0.07-0.2,0.12-0.31,0.16
		c-0.15,0.06-0.3,0.1-0.46,0.12c-0.22,0.03-0.45,0.05-0.67,0.04c-0.43,0.01-0.85-0.05-1.25-0.18c-0.31-0.11-0.59-0.3-0.8-0.56
		c-0.21-0.27-0.36-0.57-0.44-0.9c-0.1-0.41-0.17-0.83-0.2-1.26l-0.13-1.71c-0.02-0.51-0.15-1.01-0.38-1.47
		c-0.17-0.31-0.41-0.58-0.71-0.77c-0.26-0.16-0.54-0.26-0.84-0.29c-0.29-0.03-0.54-0.05-0.75-0.05h-1.89v6.81h2.09v0.27h-6.07
		V191.58z M149.17,184.51h1.74c0.33,0,0.65-0.04,0.96-0.13c0.29-0.08,0.54-0.24,0.74-0.46c0.23-0.26,0.39-0.56,0.48-0.89
		c0.12-0.47,0.18-0.95,0.17-1.43c0.02-0.54-0.07-1.07-0.26-1.57c-0.14-0.35-0.36-0.66-0.66-0.9c-0.27-0.2-0.58-0.34-0.91-0.4
		c-0.33-0.06-0.66-0.1-0.99-0.1c-0.23,0-0.46,0-0.69,0.01c-0.2,0-0.4,0.02-0.59,0.04L149.17,184.51z"/>
	<path id="Tracciato_10" d="M164.05,191.58h2.09v-12.9h-2.09v-0.26h3.58c0.15,0,0.3,0,0.45-0.01s0.3-0.02,0.46-0.03s0.3,0,0.45-0.01
		s0.3-0.01,0.45-0.01c0.66,0,1.31,0.04,1.96,0.12c0.58,0.09,1.13,0.34,1.58,0.71c0.4,0.3,0.73,0.69,0.93,1.15
		c0.17,0.38,0.26,0.79,0.27,1.21c-0.01,0.24-0.04,0.49-0.11,0.73c-0.08,0.33-0.24,0.64-0.45,0.9c-0.28,0.35-0.62,0.64-1.01,0.85
		c-0.54,0.29-1.14,0.46-1.75,0.52v0.04c0.2,0.02,0.47,0.07,0.82,0.14c0.36,0.08,0.72,0.19,1.06,0.35c0.36,0.17,0.69,0.38,0.99,0.65
		c0.31,0.28,0.53,0.65,0.64,1.05c0.08,0.28,0.14,0.57,0.16,0.86c0.03,0.32,0.06,0.65,0.08,0.99s0.03,0.67,0.05,0.98
		c0.01,0.27,0.04,0.54,0.1,0.8c0.07,0.31,0.19,0.61,0.36,0.89c0.17,0.27,0.47,0.42,0.79,0.4c0.17,0,0.35-0.04,0.51-0.1
		c0.18-0.06,0.34-0.17,0.47-0.3l0.17,0.21c-0.06,0.05-0.13,0.11-0.21,0.16c-0.1,0.06-0.2,0.12-0.31,0.16
		c-0.15,0.06-0.3,0.1-0.46,0.12c-0.22,0.03-0.45,0.05-0.67,0.04c-0.43,0.01-0.85-0.05-1.25-0.18c-0.31-0.11-0.59-0.31-0.8-0.56
		c-0.21-0.27-0.36-0.57-0.44-0.9c-0.1-0.41-0.17-0.83-0.2-1.26l-0.13-1.71c-0.02-0.51-0.15-1.01-0.38-1.47
		c-0.17-0.31-0.41-0.58-0.71-0.77c-0.26-0.16-0.54-0.26-0.84-0.29c-0.29-0.03-0.54-0.05-0.75-0.05h-1.89v6.81h2.09v0.27h-6.07
		L164.05,191.58z M168.03,184.51h1.74c0.33,0,0.65-0.04,0.96-0.13c0.28-0.08,0.54-0.24,0.74-0.46c0.23-0.26,0.39-0.56,0.48-0.89
		c0.12-0.47,0.18-0.95,0.17-1.43c0.02-0.54-0.07-1.07-0.26-1.57c-0.14-0.35-0.36-0.66-0.66-0.9c-0.27-0.2-0.57-0.34-0.9-0.4
		c-0.33-0.06-0.66-0.1-0.99-0.1c-0.23,0-0.46,0-0.69,0.01c-0.2,0-0.4,0.02-0.59,0.04L168.03,184.51z"/>
	<path id="Tracciato_11" d="M182.91,191.58H185v-12.9h-2.09v-0.26h10.78v3.26h-0.21c-0.14-0.44-0.32-0.87-0.53-1.29
		c-0.17-0.35-0.4-0.67-0.68-0.94c-0.27-0.26-0.59-0.46-0.94-0.58c-0.43-0.13-0.87-0.2-1.32-0.19h-3.13v5.83h1.23
		c0.36,0.01,0.71-0.03,1.06-0.11c0.28-0.07,0.54-0.22,0.75-0.42c0.23-0.25,0.41-0.53,0.53-0.85c0.17-0.45,0.31-0.91,0.43-1.39h0.21
		v5.86h-0.21c-0.09-0.36-0.18-0.72-0.27-1.06c-0.09-0.32-0.22-0.62-0.4-0.9c-0.17-0.26-0.4-0.48-0.68-0.63
		c-0.34-0.17-0.72-0.25-1.1-0.23h-1.53v6.81h3.57c0.61,0.02,1.21-0.13,1.73-0.44c0.44-0.28,0.82-0.64,1.12-1.06
		c0.28-0.39,0.5-0.82,0.64-1.27c0.12-0.36,0.21-0.72,0.26-1.1h0.21v4.13h-11.5L182.91,191.58z"/>
	<path id="Tracciato_12" d="M201.42,191.58h2.09v-12.9h-2.09v-0.26h3.51c0.18,0,0.35-0.01,0.53-0.01s0.35-0.01,0.53-0.02
		s0.35,0,0.53-0.01s0.35-0.01,0.53-0.01c0.38,0,0.72,0.01,1.01,0.02s0.57,0.03,0.83,0.06c0.25,0.03,0.49,0.07,0.74,0.13
		c0.23,0.06,0.48,0.13,0.75,0.22c0.71,0.23,1.38,0.57,1.99,1.01c0.54,0.4,1.01,0.9,1.37,1.46c0.36,0.56,0.63,1.17,0.79,1.81
		c0.17,0.67,0.26,1.36,0.25,2.05c0.01,0.76-0.09,1.51-0.3,2.23c-0.19,0.62-0.47,1.21-0.83,1.75c-0.34,0.5-0.76,0.95-1.24,1.32
		c-0.46,0.37-0.97,0.67-1.52,0.9c-0.28,0.13-0.56,0.24-0.85,0.32c-0.27,0.07-0.55,0.13-0.83,0.17c-0.28,0.04-0.6,0.06-0.94,0.08
		s-0.73,0.02-1.17,0.02c-0.19,0-0.39,0-0.61-0.01s-0.42-0.02-0.64-0.03s-0.42-0.02-0.63-0.03s-0.4-0.01-0.59-0.01h-3.21V191.58z
		 M205.4,191.58c0.21,0.03,0.46,0.04,0.74,0.06s0.59,0.02,0.93,0.02c0.42,0,0.85-0.02,1.27-0.07c0.41-0.04,0.82-0.14,1.21-0.28
		c0.39-0.15,0.75-0.36,1.07-0.62c0.36-0.3,0.66-0.66,0.9-1.07c0.39-0.65,0.67-1.35,0.84-2.08c0.16-0.76,0.24-1.55,0.24-2.33
		c0.01-0.91-0.09-1.82-0.28-2.71c-0.16-0.75-0.48-1.46-0.93-2.08c-0.45-0.58-1.05-1.04-1.73-1.33c-0.85-0.34-1.75-0.5-2.66-0.47
		c-0.31,0-0.6,0.01-0.86,0.02s-0.5,0.02-0.74,0.04L205.4,191.58z"/>
	<path id="Tracciato_13" d="M220.41,191.58h1.66l5.09-13.5h0.46l5.13,13.5h1.68v0.27h-5.81v-0.27h2.09l-1.98-5.24h-4.38l-1.98,5.24
		h2.09v0.27h-4.05L220.41,191.58z M226.54,180.59l-2.07,5.49h4.15L226.54,180.59z"/>
	<path id="Tracciato_14" d="M240.13,191.58h2.09v-12.9h-2.09v-0.26h4.24l3.49,10.14h0.04l3.49-10.14h4.17v0.26h-2.09v12.9h2.09v0.26
		h-6.07v-0.26h2.09v-12.79h-0.04l-4.5,13.07l-4.49-12.93h-0.04v12.65h2.09v0.26h-4.47L240.13,191.58z"/>
	<path id="Tracciato_15" d="M261.85,191.58h2.09v-12.9h-2.09v-0.26h10.78v3.26h-0.21c-0.14-0.44-0.32-0.87-0.53-1.29
		c-0.17-0.35-0.4-0.67-0.68-0.94c-0.27-0.26-0.59-0.46-0.94-0.58c-0.43-0.13-0.87-0.2-1.32-0.19h-3.13v5.83h1.23
		c0.35,0.01,0.71-0.03,1.05-0.11c0.28-0.07,0.54-0.22,0.75-0.42c0.23-0.25,0.41-0.53,0.53-0.85c0.17-0.45,0.31-0.91,0.42-1.39h0.21
		v5.86h-0.21c-0.09-0.36-0.18-0.72-0.27-1.06c-0.09-0.32-0.22-0.62-0.4-0.9c-0.17-0.26-0.4-0.48-0.68-0.63
		c-0.34-0.17-0.72-0.25-1.1-0.23h-1.53v6.81h3.56c0.61,0.02,1.21-0.13,1.73-0.44c0.44-0.28,0.82-0.63,1.12-1.06
		c0.28-0.39,0.5-0.82,0.64-1.27c0.12-0.36,0.21-0.72,0.26-1.1h0.21v4.13h-11.5L261.85,191.58z"/>
	<path id="Tracciato_16" d="M280.2,191.58h2.09v-12.9h-2.09v-0.26h4.04l6.37,10.27h0.04v-10.01h-2.09v-0.26h4.47v0.26h-2.09v13.43
		h-0.37l-7.94-12.65h-0.04v12.12h2.09v0.26h-4.47V191.58z"/>
	<path id="Tracciato_17" d="M300.39,191.58h2.09v-12.9h-1.1c-0.28,0-0.57,0.02-0.85,0.06c-0.34,0.05-0.67,0.18-0.95,0.37
		c-0.37,0.25-0.68,0.58-0.92,0.95c-0.35,0.56-0.61,1.16-0.76,1.8h-0.21v-3.45h11.46v3.45h-0.21c-0.16-0.64-0.41-1.24-0.76-1.8
		c-0.24-0.38-0.55-0.7-0.92-0.95c-0.29-0.19-0.61-0.31-0.95-0.37c-0.28-0.04-0.56-0.06-0.85-0.06h-1.09v12.9h2.09v0.26h-6.07
		L300.39,191.58z"/>
	<path id="Tracciato_18" d="M315.74,191.58h2.09v-12.9h-2.09v-0.26h6.07v0.26h-2.09v12.9h2.09v0.26h-6.07V191.58z"/>
</g>
</svg>
